<?xml version="1.0" encoding="utf-8"?>
<!-- Generator: Adobe Illustrator 24.0.0, SVG Export Plug-In . SVG Version: 6.00 Build 0)  -->
<svg version="1.1" xmlns="http://www.w3.org/2000/svg" xmlns:xlink="http://www.w3.org/1999/xlink" x="0px" y="0px"
	 viewBox="0 0 866.4 512" style="enable-background:new 0 0 866.4 512;" xml:space="preserve">
<style type="text/css">
	.st0{fill:#5F5D7E;}
	.st1{opacity:0.1;enable-background:new    ;}
	.st2{fill:#6C63FF;}
	.st3{fill:#474157;}
	.st4{opacity:0.16;fill:#736DFD;enable-background:new    ;}
	.st5{fill:#2F2E41;}
	.st6{fill:#9F616A;}
	.st7{fill:#736DFD;}
	.st8{fill:none;stroke:#736DFD;stroke-width:3;stroke-linecap:round;stroke-miterlimit:10;}
	.st9{fill:#EDEDF4;}
	.st10{fill:#E6E8EC;}
	.st11{opacity:0.1;}
	.st12{fill:#CCCCCC;}
	.st13{fill:#FFFFFF;}
	.st14{fill:#775ADA;}
	.st15{fill:#FFB9B9;}
	.st16{fill:#3F3D56;}
	.st17{fill:#E6E6E6;}
</style>
<g id="Layer_1">
	<g id="Layer_3">
		<polygon class="st0" points="347.3,288.5 347.1,300.2 345.3,394.8 330.5,429.6 279.4,430.1 279.4,293.9 332.7,289.7 		"/>
		<polygon class="st1" points="347.3,288.5 347.1,300.2 345.3,394.8 330.5,429.6 279.4,430.1 279.4,293.9 332.7,289.7 		"/>
		<polygon class="st0" points="347.3,288.5 347.1,300.2 345.3,394.8 330.5,429.6 334.4,300.4 334.4,300.4 332.7,289.7 		"/>
		<polygon class="st1" points="332.7,289.7 347.3,288.5 347.1,300.2 334.4,300.4 279.4,301 279.4,293.9 		"/>
		<polygon class="st0" points="545.9,282.9 545.9,293.9 222.1,300.4 222.1,286.4 252.5,275.3 517.7,271.8 		"/>
		<polygon class="st1" points="545.9,282.9 545.9,293.9 222.1,300.4 222.1,286.4 		"/>
		<ellipse class="st1" cx="435.3" cy="277.1" rx="26.4" ry="1.7"/>
		<path class="st2" d="M457.4,211.9c-0.6,0.8-1,1.6-1.3,2.5c-0.1,0.2-0.2,0.5-0.2,0.7c-0.1-0.1-0.3-0.1-0.5-0.2
			c-0.7-0.2-1.4-0.2-2.1-0.2c0-0.3,0-0.6,0-0.9c0.1-3.1-0.3-7.4-3.2-5.6c-2.8,1.8-0.8,4.7,1,6.6l0.5,0.5c-1.7,1.2-2,3.9-2.3,6.8
			c-0.3,2.9-2.7,6-4.3,7.8c-0.2,0.2-0.3,0.3-0.5,0.5c-1.3-1.1-3-1.5-4.7-1.2c-0.1-0.3-0.1-0.5-0.2-0.8c-1.3-4.7-4-12.9-7.5-14.7
			l0.5-0.6c1.5-1.9,3.1-4.8,0.7-5.5s-2.7,2.5-2.5,4.9c0,0.3,0,0.6,0.1,0.9c-1,0-1.9,0.5-2.6,1.3l-0.4-0.4c-2-2.3-5.6-6.1-6.7-3.3
			c-1,2.6,2.2,6,4.4,8l0.1,0.1c-1.5,6.2,5.1,11.2,8.7,13.4l0.5,0.3c-4.9,5.8-8,16.6-8,16.6l13.8,2.5c0,0,9.1-7.9,8-15.3h0.1
			c9.1-1.8,11.2-11.6,9.8-17.3l0.2-0.1c1.7-0.7,3.1-1.8,4.2-3.2C465.4,212.4,460,208.4,457.4,211.9z"/>
		<path class="st1" d="M457.4,211.9c-0.6,0.8-1,1.6-1.3,2.5c-0.1,0.2-0.2,0.5-0.2,0.7c-0.1-0.1-0.3-0.1-0.5-0.2
			c-0.7-0.2-1.4-0.2-2.1-0.2c0-0.3,0-0.6,0-0.9c0.1-3.1-0.3-7.4-3.2-5.6c-2.8,1.8-0.8,4.7,1,6.6l0.5,0.5c-1.7,1.2-2,3.9-2.3,6.8
			c-0.3,2.9-2.7,6-4.3,7.8c-0.2,0.2-0.3,0.3-0.5,0.5c-1.3-1.1-3-1.5-4.7-1.2c-0.1-0.3-0.1-0.5-0.2-0.8c-1.3-4.7-4-12.9-7.5-14.7
			l0.5-0.6c1.5-1.9,3.1-4.8,0.7-5.5s-2.7,2.5-2.5,4.9c0,0.3,0,0.6,0.1,0.9c-1,0-1.9,0.5-2.6,1.3l-0.4-0.4c-2-2.3-5.6-6.1-6.7-3.3
			c-1,2.6,2.2,6,4.4,8l0.1,0.1c-1.5,6.2,5.1,11.2,8.7,13.4l0.5,0.3c-4.9,5.8-8,16.6-8,16.6l13.8,2.5c0,0,9.1-7.9,8-15.3h0.1
			c9.1-1.8,11.2-11.6,9.8-17.3l0.2-0.1c1.7-0.7,3.1-1.8,4.2-3.2C465.4,212.4,460,208.4,457.4,211.9z"/>
		<path class="st2" d="M430,215.9l-1.6,4.7c0,0-0.9-0.6-2-1.6c-2.3-2-5.5-5.4-4.4-8c1.1-2.8,4.8,0.9,6.7,3.3
			C429.5,215.2,430,215.9,430,215.9z"/>
		<path class="st2" d="M433.4,213.2c-0.5,0.6-1,1.3-1.6,1.8c-0.1-0.8-0.2-1.6-0.3-2.5c-0.1-2.4,0.1-5.6,2.5-4.9
			C436.5,208.4,434.9,211.3,433.4,213.2z"/>
		<path class="st2" d="M454.2,213.9c0,1.6-0.2,2.8-0.2,2.8c-0.7-0.6-1.4-1.1-2-1.8c-1.8-1.9-3.8-4.8-1-6.6
			C453.9,206.6,454.3,210.9,454.2,213.9z"/>
		<path class="st2" d="M463.7,216c-1.1,1.4-2.6,2.5-4.2,3.2c-0.5,0.2-0.9,0.4-1.4,0.5l-1.9-2.7c0.2-0.9,0.5-1.7,0.8-2.6
			c0.3-0.9,0.8-1.7,1.3-2.5C460.9,208.4,466.2,212.4,463.7,216z"/>
		<path class="st1" d="M428.7,214.2c0.8,0.9,1.3,1.7,1.3,1.7l-1.6,4.7c0,0-0.9-0.6-2-1.6c0.3-1.5,0.9-2.9,1.8-4.1
			C428.4,214.6,428.5,214.4,428.7,214.2z"/>
		<path class="st1" d="M433.4,213.2c-0.5,0.6-1,1.3-1.6,1.8c-0.1-0.8-0.2-1.6-0.3-2.5C432.2,212.6,432.9,212.8,433.4,213.2z"/>
		<path class="st2" d="M441.3,231.9l-4,1.8c0,0-0.9-0.4-2.1-1.2c-4.2-2.6-12.7-9.1-7-16.8s10.4,6.1,12.3,12.8
			C441,230.5,441.3,231.9,441.3,231.9z"/>
		<path class="st1" d="M452,214.9c0.6-0.6,1.4-1,2.2-1c0,1.6-0.2,2.8-0.2,2.8C453.3,216.2,452.6,215.6,452,214.9z"/>
		<path class="st1" d="M459.4,219.2c-0.5,0.2-0.9,0.4-1.4,0.5l-1.9-2.7c0.2-0.9,0.5-1.7,0.8-2.6C458.1,215.1,459,216.9,459.4,219.2z
			"/>
		<path class="st2" d="M449.5,236.6l-0.7,0.1c-13.4,2-4.4-5.2-4.4-5.2s0.6-0.6,1.4-1.5c1.6-1.8,4.1-4.9,4.3-7.8
			c0.4-4.3,0.9-8.4,6-7.2C461.3,216.2,462.2,234,449.5,236.6z"/>
		<rect x="423.6" y="270" class="st3" width="25.6" height="6.7"/>
		<rect x="419.6" y="248" class="st3" width="33.5" height="23.5"/>
		<rect x="423.4" y="270" class="st1" width="25.6" height="6.7"/>
		<rect x="419.5" y="248.1" class="st1" width="33.5" height="23.5"/>
		<rect x="425.3" y="270" class="st3" width="25.6" height="6.7"/>
		<path class="st1" d="M440.5,228.5c0.6,2,0.9,3.4,0.9,3.4l-4,1.8c0,0-0.9-0.4-2.1-1.2C436.8,230.5,438.5,229,440.5,228.5z"/>
		<path class="st1" d="M449.5,236.6l-0.7,0.1c-13.4,2-4.4-5.2-4.4-5.2s0.6-0.6,1.4-1.5C448.3,232,449.4,234.3,449.5,236.6z"/>
		<path class="st2" d="M427.7,249.4c0,0,7.5-26.9,18.1-18.6c10.5,8.3-4.3,21.1-4.3,21.1L427.7,249.4z"/>
		<circle class="st1" cx="431.5" cy="219.9" r="0.8"/>
		<circle class="st1" cx="431.4" cy="223.8" r="0.8"/>
		<circle class="st1" cx="455.9" cy="220.7" r="0.8"/>
		<circle class="st1" cx="436.2" cy="240.8" r="0.8"/>
		<circle class="st1" cx="454.1" cy="227.2" r="0.8"/>
		<circle class="st1" cx="445.4" cy="235.9" r="0.8"/>
		<circle class="st1" cx="434.4" cy="221.6" r="0.8"/>
		<circle class="st1" cx="453.5" cy="223.2" r="0.8"/>
		<circle class="st1" cx="450.7" cy="229.7" r="0.8"/>
		<circle class="st1" cx="441.8" cy="240.2" r="0.8"/>
		<circle class="st1" cx="440" cy="236" r="0.8"/>
		<circle class="st1" cx="435.6" cy="226.7" r="0.8"/>
		<rect x="425.3" y="270" class="st1" width="25.6" height="2.5"/>
		<rect x="421.2" y="248" class="st3" width="33.5" height="23.5"/>
		<circle class="st1" cx="442.9" cy="244" r="0.8"/>
		<circle class="st1" cx="437.9" cy="245" r="0.8"/>
	</g>
	<g id="Layer_4">
		<path class="st4" d="M6.3,375.1c7.1-42.1,31-187,157.9-231.8c72.8-25.7,97.9,10.2,204.7-13.9c97.9-22.2,99.5-57.8,192.5-85
			C657,16.2,729,3.4,785.6,60.7c22.5,22.7,40.8,55.3,72.4,189.6c34.4,133.9-46.5,185.4-74.8,210c-39.1,34.1-79.1,36.2-98.6,42.7
			c-133,14.3-180.5-10.8-378.1-15.6c-169.8-4.2-248.6,24-289.9-16.6C-5.9,448.5-1.4,421,6.3,375.1z"/>
	</g>
	<g id="f6ab8ba1-7e68-4bec-bb42-3789208a6270">
		<circle class="st5" cx="138.3" cy="71.7" r="30.7"/>
		<path class="st6" d="M128.5,94.4c0,0,1.6,28.6-1.6,28.6c-3.2,0,19.8,13.5,19.8,13.5l14.3-7.9V119c0,0-19-2.4-11.1-23
			S128.5,94.4,128.5,94.4z"/>
		<polygon class="st6" points="61.8,407.9 59.4,431.7 67.3,434.1 73.7,427.7 76.1,407.9 		"/>
		<polygon class="st6" points="176.1,421.4 180,436.4 191.1,443.6 203.1,437.2 189.6,415 		"/>
		<circle class="st6" cx="136" cy="83.7" r="23"/>
		<path class="st6" d="M122.1,169.8l-5.6-2.4c0,0-9.5-5.6-10.3-16.7s7.9-25.4,7.9-25.4l12.7-4l14.9,12.1l0.2,19.6L122.1,169.8z"/>
		<path class="st6" d="M116.5,126.9l-3.2-1.6c0,0-15.9-0.8-17.5,18.3s-7.1,50.8-7.1,50.8s-12.7,22.2-11.9,46L70.5,261
			c0,0-8.7,30.2,1.6,30.2s9.5-32.5,9.5-32.5s19-46,20.6-54s15.1-45.2,11.1-55.6C109.3,138.7,116.5,126.9,116.5,126.9z"/>
		<path class="st6" d="M128.5,176.9v8.7c0,0,5.6,6.3,3.2,10.3s-4.8,11.9-4.8,11.9l11.1,17.5l37.3,3.2l7.4-49.7L128.5,176.9z"/>
		<path class="st6" d="M163.4,121.4l6.3-3.2c0,0,13.9-0.8,25-2.4l33.7,1.2L245,52.5c0,0,1.9-11.2,8.2-8.1c6.3,3.1,4.6,21.6,4.6,21.6
			s-8,49.4-18.3,62.9s-47.2,11.5-47.2,11.5s-10.7,3.2-9.9,8.7S163.4,121.4,163.4,121.4z"/>
		<path class="st5" d="M134,207.9c0,0-8.7-5.6-14.3,4s-15.9,11.9-22.2,40.5s-21.4,73.8-25.4,77S51.5,365.8,61,412.6h15.9l13.5-67.5
			c0,0,43.7-54,46.8-76.2l14.3,83.3c0,0,0.8,31.7,12.7,46.8l12.7,30.2l16.7-7.9l-19-76.2c0,0,9.5-77,3.2-98.4l-0.9-28.1
			C176.7,218.7,150.7,219.8,134,207.9z"/>
		<path class="st5" d="M67.3,427.7h-9.5c-1.6,0-14.3,10.3-8.7,15.9s14.3,15.9,14.3,15.9s31,3.9,31.7-1.6s-13.5-17.4-13.5-17.4
			l-4-12.7C77.7,427.7,69.7,419,67.3,427.7z"/>
		<path class="st5" d="M193.5,435.7c0,0-13.5-0.8-15.9-1.6s-7.1,20.6,0,22.2s36.5,4,36.5,4s23-0.8,21.4-7.1s-32.5-19-32.5-19
			S199.1,426.1,193.5,435.7z"/>
		<path class="st7" d="M130.8,120.6l-4-2.4l-4.8,4c0,0,14.3,9.5,11.1,18.3s-16.7,27-16.7,27s11.9,13.5,11.9,18.3c0,0,31-11.1,54,0
			c0,0,0-15.9,3.2-19s4.8-14.3-3.2-23.8c-5.6-7-10.6-14.4-15.1-22.2l-7.9-4.8l-4.1,1.3c0,0,8.1,9,0.1,9.8S134.8,125.3,130.8,120.6z"
			/>
		<path class="st5" d="M143.6,47.9c0,0-10.4,13.4-31.2,16.4c-20.8,3-4.4,35.7-4.4,35.7s-5.9-11.9,5.9-22.3S143.6,61.3,143.6,47.9z"
			/>
		<path class="st5" d="M144.4,47.1c0,0,5.9,20.8,14.9,23.8s4.5,34.2-10.4,37.2c0,0,12.6-17.1,5.2-30.5S142.2,53.8,144.4,47.1z"/>
		<rect x="203.1" y="125.3" class="st7" width="13.3" height="6.8"/>
		
			<rect x="239.2" y="78.7" transform="matrix(0.1824 -0.9832 0.9832 0.1824 120.4698 309.7619)" class="st7" width="14.5" height="7.4"/>
		<path class="st8" d="M255.4,95.3c3.3,0.3,6.3-2.1,6.7-5.4"/>
		<path class="st8" d="M255.5,101c6,0.4,11.5-4.4,12.4-10.8"/>
		<path class="st8" d="M255.6,107.9c9.2,0.5,17.9-7.2,19.4-17.2"/>
	</g>
	<g id="tablet">
		<path class="st3" d="M302.6,205.4h72.6c3,0,5.4,2.4,5.4,5.3v52.6c0,2.9-2.4,5.3-5.4,5.3h-72.6c-3,0-5.4-2.4-5.4-5.3v-52.6
			C297.1,207.8,299.6,205.4,302.6,205.4z"/>
		<rect x="303.9" y="211.1" class="st9" width="70.2" height="51.6"/>
		<ellipse class="st10" cx="301.1" cy="236.9" rx="1.2" ry="1.1"/>
		<ellipse class="st10" cx="377.2" cy="237" rx="1.9" ry="1.8"/>
		<path class="st1" d="M376.8,225.5l-0.9,0.2c0.2-0.1,0.5-0.2,0.7-0.2H376.8z"/>
		<g class="st11">
			<path d="M375.5,225.2c0.4-0.1,0.8-0.1,1.2-0.1c-0.6,0-1.1,0-1.7,0.1H375.5z"/>
		</g>
		<path class="st8" d="M305.7,196.5c-3.2-1.1-6.6,0.5-7.8,3.7"/>
		<path class="st8" d="M307,190.9c-5.7-1.8-12.2,1.5-14.6,7.5"/>
		<path class="st8" d="M308.6,184.2c-8.8-2.7-19.1,2.7-22.9,12"/>
	</g>
</g>
<g id="Layer_2">
	<rect x="664.7" y="248.8" class="st12" width="85.5" height="95.6"/>
	<path class="st13" d="M706.3,461.2l1.5,20.1c0.3,3.5-2.4,6.6-5.9,6.8c-0.3,0-0.6,0-0.9,0l-10.3-0.6c-1.8-0.1-3.2-1.7-3.1-3.5
		c0-0.2,0-0.4,0.1-0.6l5.7-22.9L706.3,461.2z"/>
	<path class="st13" d="M620.1,473.1c-12.1,2.8-20.8,6.9-26.5,12.3c-2,1.9-4.7,3.1-7.5,3.2c-3.6,0.2-6.5-0.2-8.7-1.2h0
		c-1.1-0.5-1.9-1.6-2-2.8c-0.1-1.3,0.4-2.5,1.5-3.2l28.8-20.5l12.2,4.9l2.9,2.9c1.1,1.1,1.1,2.9,0,4
		C620.5,472.8,620.3,472.9,620.1,473.1L620.1,473.1z"/>
	<path class="st5" d="M657.4,145.2l82.2-0.8c-0.2-12-3-23.8-9.1-34.3c-4-6.9-3.9-14.4-3-20.8c1.5-9.8-2-19.8-9.7-26
		c-5.9-4.8-13.3-7.2-20.9-6.9l-1.6,0.1c-10.6,0.4-20.2,6.2-25.5,15.4c-2.7,4.8-3.7,10.3-3.1,15.8c0.5,5.1-0.7,10.3-3.6,15.5
		C658.3,114.6,657.2,129.3,657.4,145.2z"/>
	<path class="st14" d="M602.4,461.9l16.1,4.2l78.6-171.4l-4.9,167.1h16.1c17.2-78.6,48.4-169.4,34.4-198l-83.5-4.9L602.4,461.9z"/>
	<ellipse class="st15" cx="697.9" cy="94.6" rx="21.8" ry="21.8"/>
	<path class="st15" d="M678.9,134.7l35.8-2.1c-3.5-8.1-4.9-15.8-3.5-23.2h-26.7C684.6,115,681.8,124.8,678.9,134.7z"/>
	<polygon class="st14" points="656.5,265.3 735.1,270.9 727,131.5 713.3,127.6 697.9,131.1 682.4,123.4 672.6,126.9 	"/>
	<path class="st13" d="M721.7,365.7l53.7-12.3c-16-53-44.7-174.2-35.4-217.4l-28.1-12.6L721.7,365.7z"/>
	<path class="st13" d="M747.7,212.6L768,200l-17.4-50.9c-1.9-5.2-5.6-9.7-10.5-12.5l-5.8-3.4l3.5,51.3L747.7,212.6z"/>
	<path class="st13" d="M609.8,354.1c16.9,9.8,59.3,15.3,77.9,8.4c1.4-47.9,4.1-183.3-4.6-240.5l-30.9,12.6l2.8,37.9
		C669.8,205,626.9,318,609.8,354.1z"/>
	<polygon class="st13" points="612.2,206.3 631.2,200 656.5,171.2 652.2,134.7 610.1,193.6 	"/>
	<path class="st15" d="M671.6,233.6c-0.6,2.8-3.5,4.6-6.3,4l-16.1-3.6l2.3-10.3l16.1,3.6C670.5,228,672.3,230.8,671.6,233.6
		L671.6,233.6z"/>
	<path class="st5" d="M678.9,89c12.1-5,24-5.3,35.8-0.7l4.9-17.6h-44.9L678.9,89z"/>
	<path class="st13" d="M657.2,221.7l-9.1,16.9c-15.3-4.3-28.6-17.8-41.4-33.7l3.5-11.2l21.8,5.6L657.2,221.7z"/>
	<path class="st16" d="M663.8,187h2.8c0-39.7,8.2-67.4,16.1-67.4l0.7-2.8c-7.1,0-11.7,11.5-14.3,21.2
		C665.7,151,663.8,168.5,663.8,187z"/>
	<path class="st16" d="M728.4,177.1h2.8c0-36.4-8.2-59-20.4-59l0.7,2.8C719.9,121,728.4,138.3,728.4,177.1z"/>
	<ellipse class="st16" cx="665.2" cy="187.7" rx="7" ry="7"/>
	<path class="st16" d="M739.6,194h2.8c0-10.1-5.7-18.3-12.6-18.3v2.8C735.2,178.5,739.6,185.5,739.6,194z"/>
	<path class="st16" d="M717.2,194h2.8c0-8.5,4.4-15.5,9.8-15.5v-2.8C722.8,175.7,717.2,183.9,717.2,194z"/>
	<circle class="st16" cx="718.6" cy="194.7" r="2.8"/>
	<circle class="st16" cx="741" cy="194.7" r="2.8"/>
	<polygon class="st14" points="776.1,168.9 758.6,172 718.6,229 739.8,224 	"/>
	<path class="st16" d="M779.2,168.2c0.8,0,1.5,0.7,1.5,1.5c0,0.3-0.1,0.6-0.2,0.8L743,227.3c-0.2,0.3-0.5,0.5-0.9,0.6l-17.4,4.1
		c-0.8,0.2-1.6-0.3-1.8-1.1c-0.1-0.4,0-0.8,0.2-1.2l41.1-58.5c0.2-0.3,0.6-0.5,1-0.6l13.7-2.5C779,168.2,779.1,168.2,779.2,168.2z"
		/>
	<path class="st15" d="M755.9,208.8l-1,10.5l-16.4-1.6c-2.9-0.3-5-2.9-4.7-5.8c0.3-2.9,2.9-5,5.8-4.7L755.9,208.8z"/>
	<path class="st17" d="M770.1,207.6c0,7.4-6.1,13.4-13.5,13.5h-2.7l-2-16.4l16.3-5.9L770.1,207.6z"/>
</g>
</svg>
